<?xml version="1.0" standalone="no"?>
<!DOCTYPE svg PUBLIC "-//W3C//DTD SVG 20010904//EN"
 "http://www.w3.org/TR/2001/REC-SVG-20010904/DTD/svg10.dtd">
<svg version="1.0" xmlns="http://www.w3.org/2000/svg"
 width="500.000000pt" height="500.000000pt" viewBox="0 0 500.000000 500.000000"
 preserveAspectRatio="xMidYMid meet">
<metadata>
Created by potrace 1.14, written by Peter Selinger 2001-2017
</metadata>
<g transform="translate(0.000000,500.000000) scale(0.100000,-0.100000)"
fill="#000000" stroke="none">
<path d="M2547 4673 c-1 0 -60 -3 -132 -6 -71 -3 -143 -8 -160 -11 -16 -3 -43
-8 -60 -11 -16 -3 -41 -7 -55 -10 -14 -3 -41 -8 -60 -11 -74 -12 -333 -96
-425 -139 -38 -17 -85 -38 -102 -46 -18 -8 -33 -17 -33 -21 0 -5 -6 -8 -13 -8
-20 0 -189 -103 -274 -167 -76 -57 -229 -205 -304 -294 -24 -28 -54 -63 -66
-76 -30 -34 -142 -194 -176 -251 -61 -105 -150 -297 -161 -347 -1 -5 -15 -50
-30 -100 -15 -49 -30 -99 -32 -110 -2 -11 -10 -51 -18 -90 -8 -38 -18 -88 -21
-110 -3 -22 -8 -53 -11 -70 -18 -104 -18 -371 1 -465 2 -14 7 -47 11 -75 8
-70 67 -305 99 -395 43 -119 157 -347 220 -440 32 -47 61 -87 64 -90 3 -3 17
-20 29 -38 59 -84 240 -269 342 -349 47 -37 87 -71 88 -75 2 -5 7 -8 12 -8 4
0 38 -21 76 -46 112 -75 443 -227 542 -249 10 -2 55 -15 102 -29 188 -55 311
-71 535 -71 185 1 259 5 290 15 11 4 38 10 60 14 92 13 156 27 185 39 16 6 95
28 120 33 75 15 436 180 481 220 8 8 19 14 23 14 4 0 44 27 89 60 148 108 355
312 459 454 21 28 45 60 53 71 61 79 168 277 216 398 39 97 92 273 103 342 3
17 10 55 16 85 25 128 34 464 17 590 -13 95 -15 104 -26 160 -17 87 -19 99
-37 159 -9 31 -18 63 -19 71 -20 88 -145 367 -206 458 -16 24 -29 45 -29 48 0
13 -147 209 -204 273 -68 75 -154 159 -206 201 -30 25 -57 47 -60 51 -3 3 -34
25 -70 49 -36 24 -67 46 -70 50 -17 21 -227 134 -343 185 -58 25 -167 64 -167
59 0 -3 -13 2 -30 11 -16 9 -30 13 -30 11 0 -3 -21 1 -47 9 -27 8 -59 16 -73
19 -14 3 -38 8 -55 11 -31 7 -47 10 -105 20 -19 3 -45 8 -57 10 -35 8 -261 23
-266 18z"/>
<path d="M4110 4414 c-33 -53 -35 -61 -20 -98 26 -69 108 4 106 94 -1 41 -3
45 -28 48 -23 3 -32 -4 -58 -44z"/>
<path d="M690 4250 c-45 -45 -68 -145 -44 -192 18 -35 37 -35 59 -2 19 29 55
151 52 174 -7 43 -35 52 -67 20z"/>
<path d="M4286 4111 c-32 -35 36 -81 119 -81 48 0 70 18 60 49 -12 38 -152 62
-179 32z"/>
<path d="M695 1031 c-32 -8 -101 -43 -125 -63 -52 -45 -100 -137 -100 -194 0
-72 108 -142 235 -151 63 -5 79 -2 126 19 93 43 139 107 139 194 0 38 3 44 25
50 24 6 45 31 45 53 0 16 -17 13 -40 -6 -32 -28 -53 -22 -75 21 -11 22 -35 48
-54 58 -37 21 -128 30 -176 19z"/>
</g>
</svg>
